name Walk9.mot
datacolumns 19
datarows 15
range 2.13600000 2.15000000
endheader

                time	   L_ground_force_vx	   L_ground_force_vy	   L_ground_force_vz	   L_ground_force_px	   L_ground_force_py	   L_ground_force_pz	   R_ground_force_vx	   R_ground_force_vy	   R_ground_force_vz	   R_ground_force_px	   R_ground_force_py	   R_ground_force_pz	   L_ground_torque_x	   L_ground_torque_y	   L_ground_torque_z	   R_ground_torque_x	   R_ground_torque_y	   R_ground_torque_z	
          2.13600000	          1.08815316	         -0.04760816	         -1.08864891	          0.15303840	          0.00000000	          0.05654086	          0.00000000	          0.00000000	          0.00000000	         -0.00000000	          0.00000000	         -0.00000000	          0.00000000	         -0.03873062	          0.00000000	          0.00000000	         -0.00000000	          0.00000000	
          2.13700000	          0.43362024	         -1.50211348	         -1.07338193	          0.14286131	          0.00000000	          0.05270235	          0.00000000	          0.00000000	          0.00000000	         -0.00000000	          0.00000000	         -0.00000000	          0.00000000	         -0.03543575	          0.00000000	          0.00000000	         -0.00000000	          0.00000000	
          2.13800000	         -0.16690011	         -2.82727457	         -1.05535695	          0.13300967	          0.00000000	          0.04899105	          0.00000000	          0.00000000	          0.00000000	         -0.00000000	          0.00000000	          0.00000000	          0.00000000	         -0.03228713	          0.00000000	          0.00000000	         -0.00000000	          0.00000000	
          2.13900000	         -0.71573104	         -4.02908133	         -1.03487658	          0.12349305	          0.00000000	          0.04541018	          0.00000000	          0.00000000	          0.00000000	         -0.00000000	          0.00000000	          0.00000000	          0.00000000	         -0.02928421	          0.00000000	          0.00000000	         -0.00000000	          0.00000000	
          2.14000000	         -1.21519350	         -5.11348052	         -1.01222698	          0.11431891	          0.00000000	          0.04196217	          0.00000000	          0.00000000	          0.00000000	         -0.00000000	          0.00000000	          0.00000000	          0.00000000	         -0.02642595	          0.00000000	          0.00000000	         -0.00000000	          0.00000000	
          2.14100000	         -1.66759765	         -6.08635691	         -0.98767817	          0.10549282	          0.00000000	          0.03864876	          0.00000000	          0.00000000	          0.00000000	         -0.00000000	          0.00000000	          0.00000000	          0.00000000	         -0.02371085	          0.00000000	          0.00000000	         -0.00000000	          0.00000000	
          2.14200000	         -2.07523505	         -6.95351637	         -0.96148440	          0.09701853	          0.00000000	          0.03547103	          0.00000000	          0.00000000	          0.00000000	         -0.00000000	          0.00000000	          0.00000000	          0.00000000	         -0.02113701	          0.00000000	          0.00000000	         -0.00000000	          0.00000000	
          2.14300000	         -2.44037159	         -7.72067061	         -0.93388451	          0.08889814	          0.00000000	          0.03242944	          0.00000000	          0.00000000	          0.00000000	         -0.00000000	          0.00000000	          0.00000000	          0.00000000	         -0.01870213	          0.00000000	          0.00000000	         -0.00000000	          0.00000000	
          2.14400000	         -2.76524110	         -8.39342358	         -0.90510234	          0.08113226	          0.00000000	          0.02952392	          0.00000000	          0.00000000	          0.00000000	         -0.00000000	          0.00000000	          0.00000000	          0.00000000	         -0.01640360	          0.00000000	          0.00000000	         -0.00000000	          0.00000000	
          2.14500000	         -3.05203965	         -8.97725949	         -0.87534718	          0.07372008	          0.00000000	          0.02675388	          0.00000000	          0.00000000	          0.00000000	         -0.00000000	          0.00000000	          0.00000000	          0.00000000	         -0.01423852	          0.00000000	          0.00000000	         -0.00000000	          0.00000000	
          2.14600000	         -3.30292045	         -9.47753226	         -0.84481420	          0.06665955	          0.00000000	          0.02411826	          0.00000000	          0.00000000	          0.00000000	         -0.00000000	          0.00000000	          0.00000000	          0.00000000	         -0.01220372	          0.00000000	          0.00000000	         -0.00000000	          0.00000000	
          2.14700000	         -3.51998935	         -9.89945638	         -0.81368490	          0.05994745	          0.00000000	          0.02161559	          0.00000000	          0.00000000	          0.00000000	         -0.00000000	          0.00000000	          0.00000000	          0.00000000	         -0.01029581	          0.00000000	          0.00000000	         -0.00000000	          0.00000000	
          2.14800000	         -3.70530092	        -10.24809900	         -0.78212761	          0.05357950	          0.00000000	          0.01924403	          0.00000000	          0.00000000	          0.00000000	         -0.00000000	          0.00000000	          0.00000000	          0.00000000	         -0.00851122	          0.00000000	          0.00000000	         -0.00000000	          0.00000000	
          2.14900000	         -3.86085506	        -10.52837339	         -0.75029798	          0.04755053	          0.00000000	          0.01700139	          0.00000000	          0.00000000	          0.00000000	         -0.00000000	          0.00000000	          0.00000000	          0.00000000	         -0.00684620	          0.00000000	          0.00000000	         -0.00000000	          0.00000000	
          2.15000000	         -3.98859407	        -10.74503341	         -0.71833944	          0.04185447	          0.00000000	          0.01488519	          0.00000000	          0.00000000	          0.00000000	         -0.00000000	          0.00000000	          0.00000000	          0.00000000	         -0.00529687	          0.00000000	          0.00000000	         -0.00000000	          0.00000000	
